<svg xmlns="http://www.w3.org/2000/svg" xmlns:xlink="http://www.w3.org/1999/xlink" viewBox="0 0 202.93 29.7"><defs><style>.cls-1{font-size:21.83px;font-family:Mont-Bold, Mont;font-weight:700;letter-spacing:-0.03em;}.cls-2{letter-spacing:-0.02em;}.cls-3{letter-spacing:-0.03em;}.cls-4{letter-spacing:-0.02em;}.cls-5{letter-spacing:-0.02em;}.cls-6{letter-spacing:-0.08em;}.cls-7{fill:url(#linear-gradient);}.cls-8{fill:url(#linear-gradient-2);}.cls-9{fill:url(#linear-gradient-3);}.cls-10{fill:url(#linear-gradient-4);}</style><linearGradient id="linear-gradient" x1="16.46" y1="6.7" x2="19.54" y2="9.47" gradientUnits="userSpaceOnUse"><stop offset="0" stop-color="#fff"/><stop offset="1" stop-color="#ffe221"/></linearGradient><linearGradient id="linear-gradient-2" x1="22.06" y1="17.28" x2="17.01" y2="11.05" gradientUnits="userSpaceOnUse"><stop offset="0" stop-color="#bf5485"/><stop offset="0.98" stop-color="#ffacff"/></linearGradient><linearGradient id="linear-gradient-3" x1="11.91" y1="21.1" x2="12.62" y2="26.13" gradientUnits="userSpaceOnUse"><stop offset="0" stop-color="#39e297"/><stop offset="1" stop-color="#007347"/></linearGradient><linearGradient id="linear-gradient-4" x1="6.25" y1="18.6" x2="17.81" y2="3.24" gradientUnits="userSpaceOnUse"><stop offset="0.14" stop-color="#0054ff"/><stop offset="0.98" stop-color="#00d0ff"/></linearGradient></defs><g id="Layer_2" data-name="Layer 2"><g id="Layer_1-2" data-name="Layer 1"><text class="cls-1" transform="translate(36.28 22.41)">P<tspan class="cls-2" x="12.95" y="0">opu</tspan><tspan class="cls-3" x="54.41" y="0">p</tspan><tspan class="cls-4" x="68.62" y="0">B</tspan><tspan class="cls-5" x="82.11" y="0">uilde</tspan><tspan class="cls-6" x="134.54" y="0">r</tspan><tspan class="cls-5" x="141.68" y="0">.io</tspan></text><path d="M26.71,26.71c-3.09,3.09-7.81,3-11.86,3s-8.78.1-11.87-3S0,18.9,0,14.85-.1,6.07,3,3,10.8,0,14.85,0s8.77-.1,11.86,3,3,7.82,3,11.87S29.8,23.62,26.71,26.71Z"/><path class="cls-7" d="M21.1,7.74a8,8,0,0,0-3.37-2.45v5.82Z"/><path class="cls-8" d="M17.73,11.11h0v9.17A8,8,0,0,0,21.1,7.74Z"/><polygon class="cls-9" points="6.81 26.95 6.81 22.02 6.81 22.02 17.73 20.28 6.81 26.95"/><path class="cls-10" d="M14.85,4.75h0a8,8,0,0,0-8,8V22L17.73,11.11V5.29A7.92,7.92,0,0,0,14.85,4.75Z"/></g></g></svg>